HIERARCHY
ROOT Hips
{
	OFFSET 0.000000 0.000000 0.000000
	CHANNELS 6 Xposition Yposition Zposition Xrotation Yrotation Zrotation
	JOINT LeftUpLeg_virtual
	{
		OFFSET 0.000000 0.000000 0.000000
		CHANNELS 3 Xrotation Yrotation Zrotation
		JOINT LeftUpLeg
		{
			OFFSET 13.026900 -6.336304 -1.092800
			CHANNELS 3 Xrotation Yrotation Zrotation
			JOINT LeftLeg
			{
				OFFSET 0.524474 -46.096886 9.782700
				CHANNELS 3 Xrotation Yrotation Zrotation
				JOINT LeftFoot
				{
					OFFSET -0.524474 -53.427422 -12.948200
					CHANNELS 3 Xrotation Yrotation Zrotation
					JOINT LeftToeBase
					{
						OFFSET 0.192200 -14.009700 16.364100
						CHANNELS 3 Xrotation Yrotation Zrotation
						JOINT LeftToe_End
						{
							OFFSET -1.784700 -0.561700 9.474800
							CHANNELS 3 Xrotation Yrotation Zrotation
							End Site
							{
								OFFSET 0 0 0
							}
						}
					}
				}
			}
		}
	}
	JOINT RightUpLeg_virtual
	{
		OFFSET 0.000000 0.000000 0.000000
		CHANNELS 3 Xrotation Yrotation Zrotation
		JOINT RightUpLeg
		{
			OFFSET -12.883000 -6.336304 -1.092800
			CHANNELS 3 Xrotation Yrotation Zrotation
			JOINT RightLeg
			{
				OFFSET -0.524587 -46.096825 9.782800
				CHANNELS 3 Xrotation Yrotation Zrotation
				JOINT RightFoot
				{
					OFFSET 0.524587 -53.427383 -12.948300
					CHANNELS 3 Xrotation Yrotation Zrotation
					JOINT RightToeBase
					{
						OFFSET -0.192200 -14.009700 16.364100
						CHANNELS 3 Xrotation Yrotation Zrotation
						JOINT RightToe_End
						{
							OFFSET 1.784700 -0.561700 9.474800
							CHANNELS 3 Xrotation Yrotation Zrotation
							End Site
							{
								OFFSET 0 0 0
							}
						}
					}
				}
			}
		}
	}
	JOINT Spine_virtual
	{
		OFFSET 0.000000 0.000000 0.000000
		CHANNELS 3 Xrotation Yrotation Zrotation
		JOINT Spine
		{
			OFFSET 0.072000 7.257294 -0.789700
			CHANNELS 3 Xrotation Yrotation Zrotation
			JOINT Spine1
			{
				OFFSET 0.000000 12.508769 -0.658067
				CHANNELS 3 Xrotation Yrotation Zrotation
				JOINT Spine1_split
				{
					OFFSET 0.000000 12.508769 -0.658067
					CHANNELS 3 Xrotation Yrotation Zrotation
					JOINT Spine2
					{
						OFFSET 0.000000 12.508769 -0.658067
						CHANNELS 3 Xrotation Yrotation Zrotation
						JOINT Neck_virtual
						{
							OFFSET 0.000000 0.000000 0.000000
							CHANNELS 3 Xrotation Yrotation Zrotation
							JOINT Neck
							{
								OFFSET 0.000000 14.033295 7.520400
								CHANNELS 3 Xrotation Yrotation Zrotation
								JOINT Head
								{
									OFFSET 0.000000 8.198502 5.703100
									CHANNELS 3 Xrotation Yrotation Zrotation
									JOINT HeadTop_End
									{
										OFFSET 0.000000 17.760803 13.332701
										CHANNELS 3 Xrotation Yrotation Zrotation
										End Site
										{
											OFFSET 0 0 0
										}
									}
								}
							}
						}
						JOINT LeftShoulder_virtual
						{
							OFFSET 0.000000 0.000000 0.000000
							CHANNELS 3 Xrotation Yrotation Zrotation
							JOINT LeftShoulder
							{
								OFFSET 6.292450 5.785301 -0.669000
								CHANNELS 3 Xrotation Yrotation Zrotation
								JOINT LeftShoulder_split
								{
									OFFSET 6.292450 5.785301 -0.669000
									CHANNELS 3 Xrotation Yrotation Zrotation
									JOINT LeftArm
									{
										OFFSET 13.907140 -6.093903 1.965100
										CHANNELS 3 Xrotation Yrotation Zrotation
										JOINT LeftForeArm
										{
											OFFSET 34.140198 0.000000 0.000000
											CHANNELS 3 Xrotation Yrotation Zrotation
											JOINT LeftHand
											{
												OFFSET 40.960209 0.000000 0.000000
												CHANNELS 3 Xrotation Yrotation Zrotation
												End Site
												{
													OFFSET 0 0 0
												}
											}
										}
									}
								}
							}
						}
						JOINT RightShoulder_virtual
						{
							OFFSET 0.000000 0.000000 0.000000
							CHANNELS 3 Xrotation Yrotation Zrotation
							JOINT RightShoulder
							{
								OFFSET -6.292450 5.785301 -0.669000
								CHANNELS 3 Xrotation Yrotation Zrotation
								JOINT RightShoulder_split
								{
									OFFSET -6.292450 5.785301 -0.669000
									CHANNELS 3 Xrotation Yrotation Zrotation
									JOINT RightArm
									{
										OFFSET -13.907140 -6.093903 1.965100
										CHANNELS 3 Xrotation Yrotation Zrotation
										JOINT RightForeArm
										{
											OFFSET -34.140198 0.000000 0.000000
											CHANNELS 3 Xrotation Yrotation Zrotation
											JOINT RightHand
											{
												OFFSET -40.960209 0.000000 0.000000
												CHANNELS 3 Xrotation Yrotation Zrotation
												End Site
												{
													OFFSET 0 0 0
												}
											}
										}
									}
								}
							}
						}
					}
				}
			}
		}
	}
}
MOTION
Frames: 9
Frame Time: 0.03333333
3.984633 44.405201 -27.225277 0.000000 0.000000 0.000000 31.864998 -4.417029 6.218369 -54.498838 -10.597093 10.924176 122.531108 -0.544676 -3.337166 5.161477 10.310784 -12.802670 23.685488 11.468811 18.975155 0.000000 0.000000 0.000000 33.989286 -0.782238 4.200643 -47.363909 12.864983 -27.663907 112.092454 9.731411 -6.718043 -4.944797 9.634219 25.709170 -24.689016 -6.561655 -24.991768 0.000000 0.000000 0.000000 30.213974 -0.516759 3.628435 20.262776 3.861689 -6.790272 17.544244 1.734458 -0.560929 -0.284863 2.308527 0.803825 0.000000 0.000000 0.000000 18.196227 2.143580 -1.539306 3.161753 -0.551274 2.361736 -3.368821 -8.715210 5.791490 0.000000 0.000000 0.000000 16.698798 1.833031 -1.603503 0.672751 -36.579177 -7.275564 1.762603 -3.564138 -0.540214 -59.168460 -42.438892 -54.544873 2.906373 -57.563666 3.243525 0.000000 0.000000 0.000000 15.739975 1.760386 -1.070253 -0.741834 12.478338 4.121411 -3.333662 -4.843202 -1.669564 -45.841293 18.937840 49.041148 -2.878608 68.667560 2.247834 0.000000 0.000000 0.000000 
3.787964 43.902073 -28.247715 0.000000 0.000000 0.000000 30.354317 -5.185123 5.996030 -53.139350 -10.529812 11.663090 123.015586 -0.764317 -3.307223 4.438067 10.422853 -12.610603 23.567803 11.511602 19.011181 0.000000 0.000000 0.000000 32.378160 -0.896793 3.919768 -47.275636 14.101355 -26.864802 112.394219 9.463460 -6.371456 -4.683671 9.112197 25.651908 -24.563346 -6.560903 -24.828687 0.000000 0.000000 0.000000 28.527016 -1.233455 3.677543 19.688437 3.587637 -7.380538 18.730187 1.685071 -1.014048 -0.142926 2.060008 1.000390 0.000000 0.000000 0.000000 19.295443 2.162606 -1.975861 3.037241 -0.284738 1.796764 -1.677589 -8.380675 6.446175 0.000000 0.000000 0.000000 17.834307 1.826672 -2.020876 0.282237 -33.935529 -9.200867 1.517504 -4.528975 -0.090026 -59.495783 -43.057885 -53.609875 3.254040 -57.573727 3.951080 0.000000 0.000000 0.000000 16.817959 1.713210 -1.467969 -0.673553 11.602993 4.207820 -3.197951 -4.649189 -1.490116 -48.483582 19.720351 51.346852 -2.517751 69.154272 1.873395 0.000000 0.000000 0.000000 
3.570115 43.584473 -29.460865 0.000000 0.000000 0.000000 28.695274 -6.161786 5.725489 -51.088671 -10.334454 12.599084 123.269519 -0.895979 -3.323316 3.615203 10.519314 -12.466183 23.501496 11.558350 19.052960 0.000000 0.000000 0.000000 30.636305 -1.465518 3.696305 -47.322324 15.353978 -25.735057 112.622415 9.238399 -6.135456 -4.060965 8.644194 25.747960 -24.215664 -6.597143 -24.580758 0.000000 0.000000 0.000000 26.624335 -2.265003 3.752780 19.157330 3.295943 -7.978878 19.540664 1.587655 -1.456416 -0.263394 1.747779 1.192059 0.000000 0.000000 0.000000 20.018617 2.140301 -2.395350 3.266635 0.065395 1.172561 0.326366 -7.987017 7.233973 0.000000 0.000000 0.000000 18.603688 1.779459 -2.391610 0.003211 -30.579221 -11.164334 1.426609 -5.248681 0.225243 -59.083786 -42.711895 -52.870992 3.746897 -59.380251 4.839608 0.000000 0.000000 0.000000 17.481099 1.584481 -1.861527 -0.542810 10.914071 4.320686 -3.053826 -4.690302 -1.200720 -51.121067 20.890069 55.079322 -2.355257 69.434761 1.836415 0.000000 0.000000 0.000000 
3.342200 43.424389 -30.632450 0.000000 0.000000 0.000000 27.038723 -7.409958 5.507836 -48.569141 -9.947540 13.583342 123.328491 -0.918339 -3.394606 2.648463 10.615423 -12.279320 23.470893 11.604839 19.089675 0.000000 0.000000 0.000000 28.927600 -2.457192 3.556004 -47.250887 16.478909 -24.353381 112.728167 9.087223 -6.048351 -3.307847 8.257422 25.943936 -24.088998 -6.559540 -24.340842 0.000000 0.000000 0.000000 24.657338 -3.595622 3.859373 18.764394 2.980887 -8.560412 20.033319 1.436886 -1.788268 -0.464778 1.328751 1.429701 0.000000 0.000000 0.000000 20.431107 2.051766 -2.712593 3.742572 0.477649 0.604404 2.394424 -7.571945 7.993533 0.000000 0.000000 0.000000 19.077236 1.671895 -2.631547 -0.121101 -26.993700 -12.860620 1.547930 -5.544514 0.467281 -57.982801 -41.507251 -52.562889 4.201514 -62.413510 5.658498 0.000000 0.000000 0.000000 17.813987 1.396753 -2.154963 -0.383175 10.416815 4.381470 -3.042932 -4.905982 -0.867032 -53.587926 22.221172 59.728112 -2.600387 68.969078 2.294286 0.000000 0.000000 0.000000 
3.114421 43.421429 -31.814213 0.000000 0.000000 0.000000 25.415646 -8.879547 5.370331 -45.832618 -9.281728 14.486616 123.252731 -0.820111 -3.487266 1.502982 10.731017 -11.990870 23.408132 11.642929 19.119231 0.000000 0.000000 0.000000 27.294196 -3.840977 3.512667 -47.074193 17.293440 -22.833886 112.700628 8.903064 -5.990735 -2.521910 7.812876 26.086475 -24.170463 -6.457841 -24.138725 0.000000 0.000000 0.000000 22.782270 -5.110713 3.937652 18.587559 2.675613 -9.091098 20.299940 1.246972 -1.972721 -1.022798 0.912547 1.853717 0.000000 0.000000 0.000000 20.610137 1.911086 -2.892597 4.294846 0.916007 0.211261 4.337612 -7.131004 8.608224 0.000000 0.000000 0.000000 19.353063 1.501309 -2.728869 -0.111597 -23.741866 -14.042065 1.734592 -5.275819 0.702349 -56.757373 -39.721955 -52.937579 4.391525 -65.295645 6.157735 0.000000 0.000000 0.000000 17.941905 1.195274 -2.313151 -0.217131 10.203883 4.247313 -3.207612 -5.287461 -0.364662 -55.666452 23.736401 64.418758 -3.162172 67.197716 3.037706 0.000000 0.000000 0.000000 
2.950976 43.497406 -32.810863 0.000000 0.000000 0.000000 23.924741 -10.456834 5.324525 -43.245169 -8.431624 15.178787 123.181219 -0.634730 -3.511630 0.292730 10.848332 -11.685429 23.258497 11.666078 19.148188 0.000000 0.000000 0.000000 25.745257 -5.474719 3.544264 -46.923608 17.750053 -21.342383 112.622634 8.645851 -5.915007 -1.838631 7.252214 26.144858 -24.222130 -6.353672 -23.971889 0.000000 0.000000 0.000000 21.097126 -6.605993 3.958278 18.676930 2.395819 -9.526567 20.399002 1.035638 -2.008870 -1.136527 0.484120 2.244207 0.000000 0.000000 0.000000 20.579891 1.731812 -2.945470 4.729226 1.356986 0.060851 5.993334 -6.778096 9.045488 0.000000 0.000000 0.000000 19.488615 1.271081 -2.712530 -0.044125 -21.280901 -14.625206 1.886271 -4.580708 0.836679 -55.512970 -37.757989 -53.876474 3.904914 -66.876295 5.912724 0.000000 0.000000 0.000000 17.916479 1.006442 -2.336012 -0.069543 10.226405 3.914568 -3.452490 -5.690503 0.173131 -57.216102 25.635068 68.586943 -3.697648 63.829429 3.672534 0.000000 0.000000 0.000000 
2.892784 43.608620 -33.527248 0.000000 0.000000 0.000000 22.650342 -12.059299 5.338805 -41.047323 -7.508549 15.611570 123.220233 -0.422338 -3.361777 -0.782174 10.952381 -11.489787 23.046657 11.677743 19.179443 0.000000 0.000000 0.000000 24.320451 -7.109709 3.610937 -46.835055 17.953943 -20.088998 112.549496 8.428336 -5.904185 -1.419700 6.666675 26.179277 -24.238171 -6.260103 -23.842671 0.000000 0.000000 0.000000 19.594617 -7.860025 3.897834 19.043763 2.156744 -9.811988 20.334269 0.822359 -1.958685 -1.288971 0.187444 2.541754 0.000000 0.000000 0.000000 20.353482 1.547981 -2.921362 4.963000 1.732216 0.164416 7.279939 -6.523461 9.326467 0.000000 0.000000 0.000000 19.480664 1.003089 -2.633913 -0.003857 -19.802761 -14.686215 1.785707 -3.724914 0.815319 -54.237088 -35.874045 -55.251398 2.805762 -66.930677 4.964184 0.000000 0.000000 0.000000 17.734762 0.850027 -2.265475 0.066559 10.337239 3.413566 -3.693734 -5.935021 0.647642 -57.923815 27.920878 71.770255 -4.034493 59.492232 3.981302 0.000000 0.000000 0.000000 
2.931410 43.728977 -33.998943 0.000000 0.000000 0.000000 21.569280 -13.564866 5.386909 -39.373472 -6.566438 15.823542 123.431053 -0.208456 -3.034158 -1.546611 11.070465 -11.449092 22.903223 11.693168 19.184968 0.000000 0.000000 0.000000 23.166077 -8.540772 3.721880 -46.792393 18.067184 -19.180114 112.511398 8.336342 -6.038353 -1.279658 6.194634 26.215495 -24.194593 -6.178710 -23.761356 0.000000 0.000000 0.000000 18.266139 -8.720856 3.772301 19.606852 1.988762 -9.914180 20.035588 0.629219 -1.869739 -1.338862 0.026994 2.555705 0.000000 0.000000 0.000000 19.852558 1.383847 -2.860085 4.984315 2.017514 0.473426 8.192127 -6.559271 9.587262 0.000000 0.000000 0.000000 19.218371 0.736969 -2.538271 -0.029387 -19.206777 -14.397147 1.547104 -2.960111 0.473160 -52.977819 -34.107369 -56.722006 1.631899 -66.071439 3.816907 0.000000 0.000000 0.000000 17.291476 0.721513 -2.146534 0.176646 10.419527 2.777218 -3.765984 -6.038579 1.109183 -57.594327 30.652222 73.909293 -4.131365 55.424318 3.956831 0.000000 0.000000 0.000000 
3.033892 43.843437 -34.060673 0.000000 0.000000 0.000000 20.677243 -14.942094 5.463672 -38.202512 -5.648137 15.886424 123.784324 -0.006712 -2.576965 -1.960462 11.217761 -11.541823 22.915227 11.719659 19.166619 0.000000 0.000000 0.000000 22.243218 -9.800344 3.859263 -46.763925 18.201271 -18.602696 112.473914 8.325018 -6.242388 -1.239084 5.919500 26.208652 -24.048208 -6.109831 -23.730811 0.000000 0.000000 0.000000 17.085834 -9.132794 3.603540 20.284173 1.894802 -9.804045 19.408251 0.476786 -1.775909 -1.215524 -0.003328 2.250454 0.000000 0.000000 0.000000 18.997666 1.271750 -2.787293 4.824695 2.170764 0.880972 8.788574 -6.990753 9.933425 0.000000 0.000000 0.000000 18.592403 0.517423 -2.418388 -0.127497 -19.257954 -13.958339 1.262632 -2.357741 -0.054720 -51.331942 -32.449471 -57.843151 0.616542 -65.225165 2.730742 0.000000 0.000000 0.000000 16.475574 0.613469 -2.003566 0.263783 10.331730 2.147326 -3.639046 -6.063614 1.423508 -56.118825 33.554339 75.035529 -4.087569 52.608753 3.729513 0.000000 0.000000 0.000000 
